<svg t="1646844679559" class="icon" viewBox="0 0 1024 1024" version="1.1" xmlns="http://www.w3.org/2000/svg" p-id="1747" width="200" height="200">
	<path d="M512 552.10666667c252.416 0 450.56-111.616 450.56-253.952s-198.144-253.952-450.56-253.952-450.56 111.616-450.56 254.464c0 142.336 198.144 253.44 450.56 253.44zM132.096 298.66666667c0-105.472 174.08-194.56 379.904-194.56s379.904 89.088 379.904 194.56-174.08 194.56-379.904 194.56-379.904-89.088-379.904-194.56z" p-id="1748">
	</path>
	<path d="M935.424 454.82666667c-12.8-3.584-26.112-0.512-35.328 8.704-8.192 8.192-11.776 20.48-9.728 31.744 1.024 5.632 1.536 11.776 1.536 17.408 0 105.472-174.08 194.56-379.904 194.56s-379.904-89.088-379.904-194.56c0-6.144 0.512-12.288 1.536-17.92 2.56-11.264-1.024-23.552-9.728-31.744-9.216-9.216-22.016-12.288-34.816-8.704s-22.016 13.312-24.576 26.112c-2.048 10.752-3.072 20.992-3.072 31.744 0 142.336 198.144 253.952 450.56 253.952s450.56-111.616 450.56-253.952c0-10.752-1.024-20.992-3.072-31.232-2.56-12.8-11.776-22.528-24.064-26.112z" p-id="1749">
	</path>
	<path d="M934.4 661.67466667c-12.288-3.584-25.6-0.512-34.816 8.704-8.192 8.192-11.776 20.48-9.728 31.744 1.024 5.632 1.536 11.776 1.536 17.408 0 105.472-174.08 194.56-379.904 194.56s-379.904-89.088-379.904-194.56c0-6.144 0.512-12.288 1.536-17.92 2.56-11.264-1.024-23.552-9.728-31.744-9.216-9.216-22.016-12.288-34.816-8.704s-22.016 13.824-24.576 26.624c-2.048 10.752-3.072 20.992-3.072 31.744 0 142.336 198.144 253.952 450.56 253.952s450.56-111.616 450.56-253.952c0-10.752-1.024-20.992-3.072-31.232-2.56-13.312-11.776-23.04-24.576-26.624z" p-id="1750">
	</path>
</svg>
