<svg t="1648891630089" class="icon" viewBox="0 0 1024 1024" version="1.1" xmlns="http://www.w3.org/2000/svg" p-id="8238" width="200" height="200">
	<path d="M768.00256 672a32 32 0 0 1 0-64 32 32 0 0 0 32-32 32 32 0 0 1 64 0c0 52.928-43.072 96-96 96M198.72256 768h553.28c4.544 0 9.024-0.128 13.44-0.448h0.448l5.376-0.448A208.32 208.32 0 0 0 960.00256 561.6V561.28v-0.32-0.32-0.96-0.384-0.704-0.32-0.32-0.32-2.048c-0.128-0.192-0.064-0.256-0.064-0.32v-0.256-0.32-0.256V553.216c-0.128-0.064-0.064-0.192-0.064-0.256V552.384v-0.768l-0.064-0.256v-0.128-0.32-0.256l-0.064-0.64v-0.384A208.192 208.192 0 0 0 752.00256 352c-62.72 0-121.408 27.904-161.152 76.48a31.936 31.936 0 1 1-49.536-40.448 270.72 270.72 0 0 1 217.536-99.968A287.168 287.168 0 0 0 544.00256 192a286.72 286.72 0 0 0-286.656 259.904 31.872 31.872 0 0 1-34.944 28.8A144.128 144.128 0 0 0 64.00256 624c0 75.008 56.256 136.704 130.88 143.424 1.28 0.128 2.624 0.32 3.84 0.576M768.00256 832H192.00256a33.088 33.088 0 0 1-10.112-1.6A206.912 206.912 0 0 1 0.00256 624a208.256 208.256 0 0 1 197.76-207.744A350.4 350.4 0 0 1 544.00256 128a350.976 350.976 0 0 1 306.24 178.304 271.616 271.616 0 0 1 173.248 237.12l0.064 0.384V544 544.64a2.432 2.432 0 0 1 0.064 0.64v0.064c0.192 3.904 0.32 7.936 0.384 11.904V560.832a272.384 272.384 0 0 1-248 270.08A30.144 30.144 0 0 1 768.00256 832" p-id="8239">
	</path>
</svg>
