<svg t="1647521869807" class="icon" viewBox="0 0 1024 1024" version="1.1" xmlns="http://www.w3.org/2000/svg" p-id="1277" width="200" height="200">
	<path d="M480 128V32a32 32 0 0 1 64 0V128h320A96 96 0 0 1 960 224v128a32 32 0 1 1-64 0v-128a32 32 0 0 0-32-32h-704a32 32 0 0 0-32 32v128a32 32 0 0 1-64 0v-128A96 96 0 0 1 160 128h320zM768 416a32 32 0 1 1 64 0v512a96 96 0 0 1-96 96h-448A96 96 0 0 1 192 928v-512a32 32 0 0 1 64 0v512a32 32 0 0 0 32 32h448a32 32 0 0 0 32-32v-512z m-384 128a32 32 0 0 1 64 0v256a32 32 0 1 1-64 0v-256z m192 0a32 32 0 0 1 64 0v256a32 32 0 1 1-64 0v-256z" p-id="1278">
	</path>
</svg>
