<svg t="1647157156634" class="icon" viewBox="0 0 1024 1024" version="1.1" xmlns="http://www.w3.org/2000/svg" p-id="1408" width="200" height="200">
	<path d="M896 640V448H128v192h768z m0 64H128v96A96 96 0 0 0 224 896h576a96 96 0 0 0 96-96V704z m0-320V288A96 96 0 0 0 800 192h-576A96 96 0 0 0 128 288V384h768zM224 128h576A160 160 0 0 1 960 288v512a160 160 0 0 1-160 160h-576A160 160 0 0 1 64 800v-512A160 160 0 0 1 224 128zM256 320a32 32 0 0 1 0-64h64a32 32 0 0 1 0 64H256z m0 256a32 32 0 0 1 0-64h64a32 32 0 0 1 0 64H256z m0 256a32 32 0 1 1 0-64h64a32 32 0 1 1 0 64H256z" p-id="1409">
	</path>
</svg>
