<svg t="1646844653312" class="icon" viewBox="0 0 1029 1024" version="1.1" xmlns="http://www.w3.org/2000/svg" p-id="10517" width="200" height="200">
	<path d="M816.128 663.04H410.624c-14.336 0.512-25.088 11.264-25.6 25.6 0 13.824 11.776 25.6 25.6 25.6h405.504c14.336-0.512 25.088-11.264 25.6-25.6-0.512-13.824-11.776-25.088-25.6-25.6zM238.08 649.216c-22.016 0-39.424 17.408-39.936 39.936 0 22.016 17.92 39.936 39.936 39.936s39.936-17.92 39.936-39.936-17.92-39.936-39.936-39.936zM238.08 431.616c-21.504 0-39.424 17.92-39.936 39.936 0 22.016 17.92 39.936 39.936 39.936s39.936-17.92 39.936-39.936-17.92-39.936-39.936-39.936zM817.664 449.024H410.624c-14.336 0.512-25.088 11.264-25.6 25.6 0 13.824 11.776 25.6 25.6 25.6h405.504c14.336-0.512 25.088-11.264 25.6-25.6 0.512-13.312-10.24-25.088-24.064-25.6z" p-id="10518">
	</path>
	<path d="M932.352 216.064h-280.064l-4.608-12.8c-16.384-46.08-58.88-123.904-158.72-127.488H98.304C64 75.264 35.84 102.4 35.328 136.704v760.32c0 33.792 28.16 60.928 62.976 60.928h835.072c33.792 0 61.44-27.136 61.952-60.928V276.992c-0.512-34.304-28.672-61.44-62.976-60.928zM875.52 900.096H178.176c-68.608 0-77.312-4.096-77.312-77.312V275.968H870.4c28.16 0 45.568 4.096 54.272 12.8 9.728 10.24 9.728 26.624 9.216 49.152v495.616c-0.512 66.56-3.584 66.56-58.368 66.56zM157.696 127.488H422.912c105.984 0 129.024 25.088 146.432 55.296l12.8 31.744h-481.28V163.84c0-16.384 2.048-25.088 7.168-30.208 7.168-7.168 22.528-6.656 49.664-6.144z" p-id="10519">
	</path>
</svg>
