<svg t="1648915711730" class="icon" viewBox="0 0 1024 1024" version="1.1" xmlns="http://www.w3.org/2000/svg" p-id="1657" width="200" height="200">
	<path d="M549.162667 465.493333L533.461333 554.666667h-62.72l15.786667-89.173334h62.634667z" p-id="1658">
	</path>
	<path d="M42.666667 512c0 62.421333 12.202667 123.178667 35.626666 179.626667l7.424 16.938666c7.68 16.725333 16.426667 33.024 26.069334 48.725334l3.541333 5.546666-0.469333 3.968c-0.426667 2.986667-1.024 6.442667-1.706667 10.325334l-2.730667 13.482666-3.669333 16.512-7.210667 29.525334-9.173333 35.157333-3.541333 12.928a42.666667 42.666667 0 0 0 52.437333 52.437333l36.992-9.898666 31.402667-7.850667 9.216-2.176 16.512-3.669333 13.482666-2.688 10.325334-1.706667 3.84-0.554667A468.266667 468.266667 0 0 0 512 981.333333c259.2 0 469.333333-210.133333 469.333333-469.333333S771.2 42.666667 512 42.666667 42.666667 252.8 42.666667 512z m430.805333-218.282667a42.666667 42.666667 0 0 1 35.2 44.501334l-0.597333 4.949333-6.528 36.992h62.72l9.088-51.84a42.666667 42.666667 0 0 1 44.501333-35.2l4.949333 0.597333a42.666667 42.666667 0 0 1 35.2 44.501334l-0.597333 4.949333-6.528 36.992h61.312a42.666667 42.666667 0 0 1 4.949333 85.034667l-4.949333 0.298666h-76.373333L620.117333 554.666667h49.408a42.666667 42.666667 0 0 1 4.949334 85.034666l-4.949334 0.298667h-64.426666l-9.813334 55.68a42.666667 42.666667 0 0 1-84.650666-9.898667l0.597333-4.949333 7.168-40.832h-62.677333l-9.813334 55.68a42.666667 42.666667 0 0 1-84.608-9.898667l0.597334-4.949333L369.066667 640H311.552a42.666667 42.666667 0 0 1-4.949333-85.034667L311.509333 554.666667h72.576l15.744-89.173334h-45.653333a42.666667 42.666667 0 0 1-4.992-85.034666l4.992-0.298667h60.672l9.130667-51.84a42.666667 42.666667 0 0 1 44.501333-35.2l4.949333 0.597333z" p-id="1659">
	</path>
</svg>
